<svg width="47" height="51" viewBox="0 0 47 51" fill="none" xmlns="http://www.w3.org/2000/svg">
<path fill-rule="evenodd" clip-rule="evenodd" d="M35.6193 24.5151C34.8764 26.0129 33.4341 27.0033 31.7952 27.0033H15.5152L13.1114 31.8348H39.3342V36.6663H13.1114C9.78985 36.6663 7.69203 32.7286 9.28725 29.4915L12.2373 23.5972L4.37047 5.26173H0V0.430267H7.14572L9.19984 5.26173H41.5413C43.2021 5.26173 44.251 7.24264 43.4425 8.83702L35.6193 24.5151ZM37.8265 10.0932H11.2758L16.4548 22.1719H31.7952L37.8265 10.0932ZM13.1115 39.082C10.7077 39.082 8.76288 41.2562 8.76288 43.9135C8.76288 46.5708 10.7077 48.7449 13.1115 48.7449C15.5153 48.7449 17.482 46.5708 17.482 43.9135C17.482 41.2562 15.5153 39.082 13.1115 39.082ZM30.6152 43.9135C30.6152 41.2562 32.5601 39.082 34.9638 39.082C37.3676 39.082 39.3343 41.2562 39.3343 43.9135C39.3343 46.5708 37.3676 48.7449 34.9638 48.7449C32.5601 48.7449 30.6152 46.5708 30.6152 43.9135Z" fill="#152C5B"/>
<rect x="19.6744" y="23.5888" width="27.3256" height="26.8415" rx="13.4207" fill="#3252DF"/>
<path d="M35.5476 38.8634C35.7396 38.8634 35.8836 38.9074 35.9796 38.9954C36.0836 39.0834 36.1356 39.2074 36.1356 39.3674C36.1356 39.7114 35.9396 39.8834 35.5476 39.8834H30.9156C30.7396 39.8834 30.5996 39.8354 30.4956 39.7394C30.3996 39.6354 30.3516 39.5074 30.3516 39.3554C30.3516 39.1714 30.4236 39.0034 30.5676 38.8514L33.3876 35.7674C33.7636 35.3594 34.0356 34.9874 34.2036 34.6514C34.3716 34.3154 34.4556 33.9834 34.4556 33.6554C34.4556 33.2314 34.3316 32.9074 34.0836 32.6834C33.8436 32.4514 33.4996 32.3354 33.0516 32.3354C32.3716 32.3354 31.6956 32.5954 31.0236 33.1154C30.9356 33.1714 30.8596 33.2154 30.7956 33.2474C30.7396 33.2714 30.6796 33.2834 30.6156 33.2834C30.5036 33.2834 30.4076 33.2314 30.3276 33.1274C30.2476 33.0234 30.2076 32.8994 30.2076 32.7554C30.2076 32.5554 30.2876 32.3954 30.4476 32.2754C30.7836 31.9874 31.1876 31.7594 31.6596 31.5914C32.1316 31.4154 32.6076 31.3274 33.0876 31.3274C33.8796 31.3274 34.5076 31.5314 34.9716 31.9394C35.4436 32.3394 35.6796 32.8834 35.6796 33.5714C35.6796 34.0594 35.5716 34.5234 35.3556 34.9634C35.1476 35.4034 34.7956 35.8954 34.2996 36.4394L32.0316 38.8634H35.5476Z" fill="white"/>
</svg>
