<svg width="47" height="51" viewBox="0 0 47 51" fill="none" xmlns="http://www.w3.org/2000/svg">
<path fill-rule="evenodd" clip-rule="evenodd" d="M16.6667 3.47144C16.6667 1.75581 18.1556 0.370911 20 0.370911C21.8444 0.370911 23.3333 1.75581 23.3333 3.47144V5.88985C30.3111 7.29542 35.5556 13.0831 35.5556 20.0076V32.4097L40 36.5437V38.6107H0V36.5437L4.44444 32.4097V20.0076C4.44444 13.0831 9.68889 7.29542 16.6667 5.88985V3.47144ZM20 9.67249C26.1333 9.67249 31.1111 14.3026 31.1111 20.0076V34.4767H8.88892V20.0076C8.88892 14.3026 13.8667 9.67249 20 9.67249ZM15.5778 40.6984C15.5778 42.9721 17.5556 44.8118 20 44.8118C22.4445 44.8118 24.4223 42.9721 24.4223 40.6984H15.5778Z" fill="#152C5B"/>
<rect x="22" y="25.6815" width="25" height="24.6894" rx="12.3447" fill="#3252DF"/>
<path d="M37.036 40.6119C37.228 40.6119 37.372 40.6559 37.468 40.7439C37.572 40.8319 37.624 40.9559 37.624 41.1159C37.624 41.4599 37.428 41.6319 37.036 41.6319H32.404C32.228 41.6319 32.088 41.5839 31.984 41.4879C31.888 41.3839 31.84 41.2559 31.84 41.1039C31.84 40.9199 31.912 40.7519 32.056 40.5999L34.876 37.5159C35.252 37.1079 35.524 36.7359 35.692 36.3999C35.86 36.0639 35.944 35.7319 35.944 35.4039C35.944 34.9799 35.82 34.6559 35.572 34.4319C35.332 34.1999 34.988 34.0839 34.54 34.0839C33.86 34.0839 33.184 34.3439 32.512 34.8639C32.424 34.9199 32.348 34.9639 32.284 34.9959C32.228 35.0199 32.168 35.0319 32.104 35.0319C31.992 35.0319 31.896 34.9799 31.816 34.8759C31.736 34.7719 31.696 34.6479 31.696 34.5039C31.696 34.3039 31.776 34.1439 31.936 34.0239C32.272 33.7359 32.676 33.5079 33.148 33.3399C33.62 33.1639 34.096 33.0759 34.576 33.0759C35.368 33.0759 35.996 33.2799 36.46 33.6879C36.932 34.0879 37.168 34.6319 37.168 35.3199C37.168 35.8079 37.06 36.2719 36.844 36.7119C36.636 37.1519 36.284 37.6439 35.788 38.1879L33.52 40.6119H37.036Z" fill="white"/>
</svg>
